<?xml version="1.0" encoding="UTF-8" standalone="no"?>
<svg
   xmlns:dc="http://purl.org/dc/elements/1.1/"
   xmlns:cc="http://creativecommons.org/ns#"
   xmlns:rdf="http://www.w3.org/1999/02/22-rdf-syntax-ns#"
   xmlns:svg="http://www.w3.org/2000/svg"
   xmlns="http://www.w3.org/2000/svg"
   xmlns:sodipodi="http://sodipodi.sourceforge.net/DTD/sodipodi-0.dtd"
   xmlns:inkscape="http://www.inkscape.org/namespaces/inkscape"
   width="148.3084mm"
   height="34.15976mm"
   viewBox="0 0 148.3084 34.15976"
   version="1.1"
   id="svg8"
   inkscape:version="1.0.2 (e86c870879, 2021-01-15)"
   sodipodi:docname="header_inkscape.svg">
  <defs
     id="defs2">
    <rect
       x="17.265835"
       y="22.06436"
       width="151.93166"
       height="31.54034"
       id="rect12" />
  </defs>
  <sodipodi:namedview
     id="base"
     pagecolor="#ffffff"
     bordercolor="#666666"
     borderopacity="1.0"
     inkscape:pageopacity="0.0"
     inkscape:pageshadow="2"
     inkscape:zoom="0.98994949"
     inkscape:cx="137.7468"
     inkscape:cy="145.85074"
     inkscape:document-units="mm"
     inkscape:current-layer="layer1"
     inkscape:document-rotation="0"
     showgrid="false"
     fit-margin-top="0"
     fit-margin-left="0"
     fit-margin-right="0"
     fit-margin-bottom="0"
     inkscape:window-width="1533"
     inkscape:window-height="1111"
     inkscape:window-x="26"
     inkscape:window-y="23"
     inkscape:window-maximized="0" />
  <metadata
     id="metadata5">
    <rdf:RDF>
      <cc:Work
         rdf:about="">
        <dc:format>image/svg+xml</dc:format>
        <dc:type
           rdf:resource="http://purl.org/dc/dcmitype/StillImage" />
        <dc:title></dc:title>
      </cc:Work>
    </rdf:RDF>
  </metadata>
  <g
     inkscape:label="Layer 1"
     inkscape:groupmode="layer"
     id="layer1"
     transform="translate(-16.334823,-13.359963)">
    <text
       xml:space="preserve"
       id="text10"
       style="font-style:normal;font-weight:normal;font-size:6.35px;line-height:1.25;font-family:sans-serif;letter-spacing:1.22767px;white-space:pre;shape-inside:url(#rect12);fill:#000000;fill-opacity:1;stroke:none;"
       transform="translate(0.73081511,18.74332)"><tspan
         x="17.265625"
         y="27.906453"><tspan
           style="font-style:normal;font-variant:normal;font-weight:500;font-stretch:normal;font-size:6.35px;font-family:Metropolis;-inkscape-font-specification:'Metropolis Medium'">DECEMBER 2, 2023 ~ LA JOLLA, CA</tspan></tspan></text>
    <text
       xml:space="preserve"
       style="font-style:normal;font-weight:normal;font-size:10.5833px;line-height:1.25;font-family:sans-serif;fill:#000000;fill-opacity:1;stroke:none;stroke-width:0.264583"
       x="-53.619465"
       y="2.7167037"
       id="text24"><tspan
         sodipodi:role="line"
         id="tspan22"
         x="-53.619465"
         y="2.7167037"
         style="stroke-width:0.264583" /></text>
    <g
       id="g821"
       transform="matrix(1.0529941,0,0,-1.0529941,-71.016884,146.63596)">
      <g
         id="g592"
         transform="translate(86.8836,109.5037)">
        <path
           d="m 0,0 c -0.019,-0.306 0.13,-0.756 0.39,-1.063 0.161,-0.19 0.345,-0.355 0.55,-0.498 0.444,-0.311 0.941,-0.499 1.459,-0.641 0.096,-0.027 0.186,0.009 0.242,0.104 0.156,0.262 0.315,0.523 0.46,0.791 0.79,1.46 1.586,2.916 2.44,4.34 0.078,0.131 0.158,0.261 0.236,0.393 0.038,0.065 0.073,0.133 0.109,0.2 C 5.912,3.675 5.87,3.749 5.817,3.748 5.722,3.744 5.626,3.75 5.532,3.734 4.532,3.57 3.553,3.327 2.625,2.906 2.225,2.725 1.845,2.506 1.486,2.25 1.158,2.016 0.867,1.743 0.604,1.438 0.428,1.234 0.285,1.009 0.178,0.763 0.071,0.516 -0.011,0.263 0,0 m 12.517,3.969 c 0,0.005 0,0.01 -10e-4,0.015 C 11.043,3.979 9.57,3.987 8.097,3.965 7.161,3.951 7.413,4.045 6.799,3.347 6.406,2.9 6.072,2.413 5.784,1.891 5.314,1.036 4.829,0.189 4.356,-0.663 4.068,-1.182 3.789,-1.705 3.508,-2.227 3.456,-2.325 3.51,-2.413 3.629,-2.422 3.819,-2.436 4.01,-2.45 4.201,-2.456 c 1.15,-0.033 2.292,0.028 3.431,0.205 0.832,0.129 1.658,0.284 2.472,0.498 1.69,0.445 3.309,1.067 4.831,1.934 1.443,0.821 2.73,1.833 3.823,3.085 0.213,0.244 0.403,0.509 0.602,0.766 0.009,0.011 0.008,0.042 -10e-4,0.054 C 19.338,4.111 19.307,4.151 19.282,4.149 18.824,4.124 18.366,4.093 17.908,4.063 17.87,4.061 17.832,4.061 17.794,4.056 17.147,3.976 16.496,3.974 15.845,3.97 14.736,3.965 13.626,3.969 12.517,3.969 m 0.339,0.262 c 1.665,-0.046 3.326,0.051 4.988,0.113 0.515,0.019 1.029,0.079 1.543,0.114 0.206,0.014 0.356,0.094 0.469,0.275 0.344,0.553 0.647,1.128 0.891,1.732 0.215,0.533 0.373,1.085 0.451,1.655 0.068,0.494 0.072,0.989 -0.056,1.48 -0.192,0.741 -0.638,1.247 -1.358,1.508 -0.344,0.125 -0.697,0.197 -1.064,0.21 -0.539,0.019 -1.068,-0.054 -1.591,-0.171 C 16.114,10.92 15.16,10.537 14.249,10.039 13.391,9.57 12.595,9.008 11.838,8.391 10.366,7.194 9.015,5.871 7.756,4.452 7.719,4.41 7.69,4.361 7.661,4.312 7.652,4.298 7.65,4.272 7.657,4.257 7.662,4.244 7.684,4.231 7.699,4.231 7.851,4.227 8.003,4.221 8.156,4.224 9.035,4.24 9.913,4.306 10.793,4.283 11.48,4.265 12.168,4.248 12.856,4.231 M 7.46,4.552 c 0.163,0.075 0.259,0.223 0.371,0.35 0.763,0.86 1.571,1.675 2.406,2.464 0.695,0.657 1.418,1.284 2.183,1.861 0.874,0.659 1.8,1.229 2.802,1.673 0.701,0.312 1.424,0.561 2.175,0.717 0.505,0.106 1.016,0.184 1.536,0.162 0.406,-0.016 0.8,-0.089 1.178,-0.231 0.934,-0.351 1.495,-1.032 1.713,-1.999 C 21.948,9.002 21.949,8.454 21.867,7.897 21.752,7.113 21.514,6.371 21.176,5.659 21.078,5.452 20.966,5.251 20.869,5.043 20.815,4.93 20.692,4.838 20.747,4.687 20.875,4.618 21.01,4.654 21.139,4.673 c 0.492,0.071 0.983,0.144 1.473,0.232 1.092,0.196 2.17,0.453 3.222,0.809 1.128,0.383 2.206,0.87 3.204,1.524 0.595,0.389 1.145,0.833 1.629,1.355 0.196,0.21 0.379,0.431 0.526,0.679 0.099,0.166 0.17,0.342 0.212,0.531 0.009,0.037 0.018,0.075 0.021,0.112 0.013,0.159 -0.029,0.305 -0.118,0.435 -0.105,0.154 -0.256,0.138 -0.411,0.099 -0.013,-0.003 -0.034,0.011 -0.045,0.023 -0.024,0.027 -0.018,0.062 0.019,0.092 0.029,0.024 0.059,0.053 0.093,0.064 0.252,0.08 0.473,10e-4 0.595,-0.21 0.163,-0.282 0.18,-0.579 0.085,-0.886 C 31.558,9.255 31.416,9.005 31.24,8.777 31.111,8.611 30.972,8.452 30.828,8.299 30.419,7.866 29.956,7.496 29.464,7.162 28.493,6.502 27.447,5.99 26.349,5.585 25.216,5.167 24.052,4.865 22.865,4.646 22.112,4.507 21.359,4.378 20.598,4.297 20.477,4.285 20.385,4.228 20.311,4.13 20.045,3.779 19.785,3.424 19.508,3.083 18.814,2.232 17.996,1.514 17.114,0.865 15.967,0.021 14.721,-0.646 13.404,-1.177 11.891,-1.787 10.325,-2.209 8.717,-2.486 7.981,-2.613 7.242,-2.703 6.5,-2.774 5.833,-2.838 5.162,-2.829 4.492,-2.813 4.148,-2.805 3.803,-2.802 3.464,-2.726 3.308,-2.691 3.21,-2.767 3.14,-2.896 3.048,-3.064 2.957,-3.232 2.864,-3.399 2.295,-4.418 1.729,-5.439 1.154,-6.454 0.937,-6.837 0.704,-7.21 0.466,-7.58 0.332,-7.789 0.178,-7.986 0.024,-8.18 c -0.045,-0.056 -0.119,-0.093 -0.186,-0.127 -0.073,-0.037 -0.154,-0.022 -0.217,0.023 -0.065,0.046 -0.096,0.119 -0.085,0.201 0.008,0.056 0.021,0.113 0.042,0.165 0.044,0.106 0.094,0.209 0.145,0.312 0.775,1.58 1.557,3.157 2.44,4.681 0.047,0.082 0.087,0.169 0.128,0.255 0.031,0.066 -0.011,0.161 -0.083,0.188 -0.196,0.076 -0.392,0.152 -0.59,0.225 -0.27,0.101 -0.518,0.245 -0.756,0.406 -0.256,0.172 -0.482,0.379 -0.671,0.623 -0.414,0.535 -0.542,1.125 -0.333,1.781 0.142,0.448 0.391,0.829 0.703,1.171 0.43,0.471 0.942,0.838 1.498,1.145 0.725,0.401 1.5,0.673 2.3,0.874 0.426,0.107 0.855,0.206 1.293,0.253 0.057,0.006 0.113,0.02 0.17,0.027 0.241,0.029 0.411,0.136 0.546,0.356 0.572,0.929 1.171,1.84 1.791,2.738 0.956,1.386 1.938,2.753 2.981,4.077 0.058,0.074 0.127,0.145 0.105,0.253 0.018,0.002 0.039,0.001 0.053,0.009 0.009,0.005 0.011,0.038 0.009,0.038 -0.038,0.014 -0.056,-0.006 -0.052,-0.057 -0.056,-0.003 -0.12,0.01 -0.167,-0.012 C 9.084,10.516 7.014,9.768 4.986,8.919 3.697,8.38 2.42,7.818 1.183,7.167 0.285,6.695 -0.59,6.182 -1.399,5.567 -1.919,5.172 -2.403,4.74 -2.809,4.224 -3.193,3.736 -3.479,3.201 -3.61,2.59 -3.739,1.993 -3.718,1.412 -3.398,0.869 -3.376,0.831 -3.386,0.802 -3.434,0.788 -3.451,0.783 -3.478,0.783 -3.49,0.793 -3.546,0.843 -3.613,0.888 -3.65,0.95 -3.8,1.199 -3.888,1.472 -3.913,1.761 c -0.042,0.482 10e-4,0.954 0.166,1.414 0.163,0.455 0.395,0.869 0.689,1.251 0.412,0.535 0.909,0.982 1.441,1.392 0.791,0.609 1.645,1.118 2.523,1.588 1.147,0.616 2.332,1.151 3.54,1.636 1.437,0.578 2.88,1.139 4.319,1.711 0.622,0.248 1.241,0.504 1.859,0.759 0.497,0.204 0.967,0.458 1.408,0.767 0.062,0.043 0.132,0.077 0.203,0.102 0.028,0.009 0.077,-0.01 0.103,-0.032 0.025,-0.021 0.042,-0.061 0.045,-0.095 0.003,-0.036 -0.006,-0.077 -0.024,-0.109 -0.047,-0.083 -0.1,-0.163 -0.153,-0.242 C 10.682,9.677 9.194,7.427 7.748,5.149 7.656,5.004 7.564,4.858 7.484,4.706 7.46,4.661 7.475,4.595 7.472,4.539 7.39,4.552 7.366,4.5 7.352,4.435 7.342,4.425 7.333,4.414 7.323,4.404 7.329,4.418 7.334,4.433 7.339,4.447 7.409,4.448 7.443,4.49 7.46,4.552"
           style="fill:#231f20;fill-opacity:1;fill-rule:nonzero;stroke:none"
           id="path590" />
      </g>
      <g
         id="g596"
         transform="translate(121.8017,110.1738)">
        <path
           d="M 0,0 C 0.003,-0.038 0.004,-0.076 0.01,-0.113 0.016,-0.15 0.019,-0.193 0.038,-0.222 0.069,-0.267 0.109,-0.31 0.155,-0.338 0.168,-0.347 0.223,-0.311 0.243,-0.283 0.472,0.023 0.636,0.364 0.752,0.727 0.786,0.835 0.816,0.949 0.739,1.054 0.694,1.116 0.538,1.049 0.406,0.908 0.342,0.839 0.276,0.769 0.224,0.691 0.085,0.482 -0.014,0.259 0,0 m -15.239,-1.544 c -0.065,-0.01 -0.16,-0.022 -0.253,-0.042 -0.397,-0.083 -0.761,-0.245 -1.104,-0.459 -0.804,-0.502 -1.473,-1.151 -2.046,-1.9 -0.104,-0.136 -0.179,-0.293 -0.262,-0.443 -0.017,-0.03 -0.022,-0.075 -0.013,-0.109 0.008,-0.03 0.04,-0.072 0.067,-0.076 0.139,-0.02 0.262,0.047 0.383,0.096 0.32,0.129 0.617,0.303 0.91,0.483 0.748,0.462 1.467,0.966 2.186,1.471 0.25,0.175 0.497,0.355 0.769,0.497 0.145,0.077 0.134,0.208 -0.012,0.304 -0.182,0.118 -0.38,0.174 -0.625,0.178 M 3.451,-3.828 C 3.429,-3.932 3.343,-3.981 3.268,-4.038 2.571,-4.574 1.872,-5.108 1.176,-5.645 0.857,-5.89 0.546,-6.144 0.226,-6.387 0.013,-6.548 -0.206,-6.702 -0.428,-6.852 c -0.142,-0.097 -0.3,-0.164 -0.464,-0.221 -0.267,-0.093 -0.57,0.016 -0.709,0.323 -0.113,0.252 -0.141,0.515 -0.083,0.785 0.057,0.262 0.123,0.523 0.245,0.763 0.13,0.255 0.259,0.512 0.408,0.757 0.298,0.491 0.645,0.948 1.025,1.38 0.24,0.272 0.481,0.545 0.721,0.818 0.139,0.158 0.276,0.317 0.375,0.505 0.047,0.091 0.019,0.186 -0.081,0.238 -0.237,0.123 -0.474,0.246 -0.712,0.369 -0.051,0.026 -0.1,0.057 -0.154,0.071 -0.033,0.009 -0.081,0.001 -0.107,-0.019 -0.06,-0.045 -0.116,-0.098 -0.165,-0.156 -1.182,-1.389 -2.54,-2.597 -3.925,-3.775 -0.67,-0.57 -1.353,-1.124 -2.068,-1.638 -0.45,-0.323 -0.909,-0.635 -1.376,-0.934 -0.273,-0.175 -0.566,-0.32 -0.856,-0.466 -0.204,-0.104 -0.425,-0.175 -0.65,-0.221 -0.498,-0.1 -0.913,0.121 -1.121,0.583 -0.072,0.159 -0.108,0.325 -0.12,0.499 -0.035,0.522 0.037,1.028 0.202,1.525 0.188,0.564 0.426,1.105 0.709,1.628 0.538,0.994 1.149,1.942 1.806,2.86 0.456,0.637 0.932,1.26 1.399,1.891 0.067,0.09 0.154,0.174 0.137,0.303 0.071,0.009 0.103,0.058 0.124,0.119 L -5.842,1.146 -5.855,1.121 C -5.896,1.082 -5.938,1.043 -5.979,1.003 -6.084,0.922 -6.194,0.847 -6.293,0.758 c -0.711,-0.64 -1.414,-1.289 -2.13,-1.924 -1.175,-1.041 -2.395,-2.029 -3.663,-2.956 -0.386,-0.282 -0.778,-0.558 -1.197,-0.789 -0.151,-0.083 -0.308,-0.153 -0.465,-0.225 -0.178,-0.081 -0.367,-0.102 -0.561,-0.091 -0.232,0.013 -0.398,0.133 -0.496,0.337 -0.102,0.211 -0.141,0.439 -0.1,0.671 0.039,0.226 0.085,0.452 0.146,0.672 0.081,0.295 0.181,0.585 0.271,0.877 0.022,0.073 0.037,0.148 0.002,0.222 -0.008,0.016 -0.029,0.04 -0.04,0.038 -0.056,-0.011 -0.116,-0.018 -0.163,-0.046 -0.197,-0.119 -0.393,-0.239 -0.583,-0.368 -0.618,-0.418 -1.23,-0.845 -1.852,-1.257 -0.319,-0.211 -0.648,-0.407 -0.982,-0.594 -0.183,-0.101 -0.383,-0.173 -0.578,-0.25 -0.108,-0.043 -0.224,-0.046 -0.339,-0.028 -0.15,0.022 -0.285,0.155 -0.308,0.301 -0.025,0.156 -0.01,0.31 0.053,0.45 0.079,0.174 0.163,0.349 0.271,0.505 0.586,0.843 1.304,1.55 2.192,2.076 0.264,0.156 0.547,0.27 0.839,0.367 0.317,0.104 0.639,0.132 0.964,0.09 0.455,-0.059 0.768,-0.298 0.916,-0.752 0.118,-0.361 0.124,-0.709 -0.008,-1.066 -0.112,-0.305 -0.203,-0.618 -0.306,-0.926 -0.073,-0.221 -0.094,-0.448 -0.087,-0.679 0.009,-0.277 0.211,-0.384 0.421,-0.334 0.244,0.057 0.476,0.146 0.69,0.277 0.293,0.181 0.589,0.358 0.873,0.552 0.853,0.585 1.663,1.227 2.459,1.886 1.269,1.05 2.488,2.156 3.666,3.307 0.63,0.615 1.254,1.236 1.88,1.855 0.056,0.054 0.101,0.114 0.085,0.217 C -4.781,3.212 -5.145,3.192 -5.504,3.154 -6.169,3.082 -6.833,2.998 -7.484,2.835 -7.986,2.709 -8.48,2.56 -8.954,2.352 -9.076,2.298 -9.19,2.227 -9.308,2.163 -9.364,2.132 -9.368,2.073 -9.389,2.021 -9.418,1.95 -9.508,1.942 -9.578,1.992 c -0.06,0.043 -0.076,0.148 -0.027,0.203 0.051,0.057 0.099,0.12 0.16,0.163 0.219,0.156 0.454,0.283 0.7,0.392 0.561,0.25 1.147,0.426 1.747,0.551 0.618,0.13 1.24,0.238 1.873,0.263 0.248,0.009 0.495,0.053 0.743,0.063 0.662,0.025 0.501,-0.039 0.983,0.451 0.295,0.299 0.567,0.622 0.851,0.933 0.116,0.127 0.231,0.255 0.355,0.374 0.054,0.051 0.125,0.086 0.194,0.118 0.097,0.044 0.235,-0.002 0.308,-0.092 C -1.64,5.347 -1.615,5.271 -1.649,5.198 -1.697,5.095 -1.753,4.993 -1.823,4.904 -2.048,4.618 -2.282,4.34 -2.509,4.056 -2.581,3.967 -2.645,3.871 -2.711,3.778 -2.738,3.74 -2.686,3.662 -2.633,3.658 -2.595,3.656 -2.557,3.649 -2.519,3.65 -1.332,3.652 -0.145,3.645 1.041,3.662 1.768,3.673 2.491,3.758 3.211,3.857 3.82,3.941 4.419,4.056 5.005,4.236 5.278,4.321 5.548,4.423 5.81,4.537 6.6,4.878 7.162,5.456 7.532,6.228 7.548,6.262 7.56,6.299 7.575,6.334 7.594,6.377 7.623,6.389 7.661,6.383 7.713,6.376 7.767,6.312 7.756,6.259 7.737,6.166 7.725,6.07 7.694,5.981 7.612,5.744 7.486,5.528 7.338,5.328 6.956,4.814 6.493,4.394 5.903,4.123 5.344,3.865 4.762,3.676 4.164,3.546 3.153,3.326 2.13,3.197 1.093,3.168 -0.075,3.135 -1.242,3.164 -2.409,3.182 -2.619,3.185 -2.83,3.185 -3.04,3.188 -3.164,3.189 -3.26,3.137 -3.338,3.044 -3.596,2.735 -3.856,2.429 -4.113,2.12 -5.435,0.53 -6.715,-1.092 -7.882,-2.801 -8.368,-3.512 -8.835,-4.235 -9.23,-5.003 -9.476,-5.48 -9.692,-5.969 -9.823,-6.492 c -0.075,-0.301 -0.083,-0.605 -0.058,-0.912 0.01,-0.117 0.049,-0.224 0.103,-0.326 0.108,-0.202 0.275,-0.314 0.503,-0.33 0.154,-0.011 0.307,-10e-4 0.452,0.055 0.197,0.075 0.395,0.146 0.585,0.234 0.365,0.171 0.705,0.386 1.042,0.605 0.899,0.587 1.744,1.246 2.57,1.929 1.078,0.89 2.12,1.821 3.099,2.82 0.415,0.424 0.813,0.864 1.19,1.323 0.036,0.044 0.071,0.09 0.108,0.134 0.08,0.097 0.106,0.195 0.033,0.312 -0.159,0.253 -0.212,0.534 -0.177,0.827 0.07,0.574 0.368,0.994 0.891,1.247 0.188,0.09 0.414,0.027 0.51,-0.132 C 1.088,1.194 1.125,1.085 1.114,0.966 1.108,0.909 1.093,0.853 1.081,0.797 1.032,0.571 0.95,0.357 0.836,0.156 0.723,-0.043 0.602,-0.239 0.482,-0.434 0.345,-0.655 0.313,-0.714 0.615,-0.865 0.82,-0.966 1.034,-1.052 1.248,-1.133 1.583,-1.262 1.705,-1.486 1.616,-1.865 1.586,-1.993 1.532,-2.122 1.461,-2.233 1.328,-2.442 1.181,-2.643 1.026,-2.838 0.811,-3.107 0.583,-3.365 0.362,-3.63 -0.08,-4.16 -0.481,-4.719 -0.836,-5.311 c -0.168,-0.281 -0.307,-0.575 -0.382,-0.894 -0.026,-0.109 -0.025,-0.227 -0.018,-0.34 0.009,-0.16 0.181,-0.272 0.33,-0.229 0.224,0.064 0.428,0.169 0.617,0.299 0.252,0.174 0.502,0.351 0.748,0.534 0.767,0.572 1.531,1.148 2.297,1.721 0.168,0.126 0.339,0.25 0.513,0.368 0.044,0.029 0.107,0.031 0.162,0.046 z"
           style="fill:#231f20;fill-opacity:1;fill-rule:nonzero;stroke:none"
           id="path594" />
      </g>
      <g
         id="g600"
         transform="translate(146.7264,116.9958)">
        <path
           d="M 0,0 C -0.003,0.03 -0.008,0.087 -0.017,0.144 -0.044,0.329 -0.231,0.488 -0.422,0.483 -0.497,0.481 -0.575,0.474 -0.648,0.455 -0.928,0.382 -1.183,0.254 -1.427,0.1 -1.948,-0.227 -2.414,-0.622 -2.854,-1.048 -3.57,-1.741 -4.208,-2.503 -4.821,-3.287 -5.905,-4.673 -6.898,-6.124 -7.862,-7.596 -7.903,-7.66 -7.939,-7.727 -7.975,-7.795 c -0.004,-0.009 0.006,-0.033 0.017,-0.041 0.012,-0.011 0.037,-0.021 0.048,-0.016 0.098,0.056 0.198,0.11 0.292,0.175 1.388,0.952 2.724,1.973 4.008,3.061 0.657,0.556 1.294,1.135 1.891,1.755 0.398,0.414 0.772,0.849 1.103,1.318 0.211,0.298 0.387,0.614 0.517,0.956 C -0.03,-0.405 0.005,-0.22 0,0 m -20.214,-9.725 c 0.013,0.086 0.08,0.128 0.144,0.166 0.219,0.13 0.383,0.311 0.526,0.519 0.207,0.301 0.457,0.565 0.729,0.808 0.143,0.128 0.299,0.239 0.474,0.319 0.106,0.049 0.219,0.074 0.335,0.06 0.098,-0.011 0.188,-0.049 0.221,-0.154 0.01,-0.03 0.005,-0.077 -0.014,-0.102 -0.02,-0.028 -0.061,-0.046 -0.097,-0.056 -0.17,-0.05 -0.314,-0.145 -0.434,-0.27 -0.186,-0.192 -0.379,-0.381 -0.541,-0.593 -0.584,-0.761 -1.071,-1.584 -1.487,-2.447 -0.074,-0.154 -0.121,-0.321 -0.172,-0.484 -0.009,-0.028 0.013,-0.077 0.037,-0.101 0.022,-0.022 0.071,-0.043 0.099,-0.034 0.279,0.082 0.523,0.236 0.755,0.404 0.356,0.258 0.706,0.526 1.055,0.794 0.363,0.28 0.72,0.569 1.084,0.849 0.485,0.374 0.988,0.723 1.509,1.046 0.358,0.222 0.718,0.44 1.115,0.588 0.145,0.054 0.267,0.142 0.385,0.243 0.174,0.148 0.358,0.286 0.546,0.418 0.205,0.144 0.439,0.233 0.682,0.293 0.246,0.061 0.49,0.059 0.729,-0.05 0.247,-0.113 0.397,-0.306 0.433,-0.567 0.03,-0.215 -0.036,-0.415 -0.213,-0.562 -0.01,-0.008 -0.034,-0.011 -0.042,-0.005 -0.015,0.01 -0.034,0.032 -0.032,0.046 0.011,0.075 0.031,0.149 0.042,0.224 0.049,0.338 -0.198,0.606 -0.537,0.581 -0.076,-0.006 -0.152,-0.021 -0.225,-0.04 -0.302,-0.081 -0.566,-0.238 -0.795,-0.444 -0.241,-0.218 -0.471,-0.448 -0.691,-0.688 -0.336,-0.367 -0.627,-0.772 -0.892,-1.194 -0.112,-0.177 -0.2,-0.369 -0.293,-0.558 -0.032,-0.068 -0.052,-0.144 -0.065,-0.219 -0.048,-0.281 0.122,-0.457 0.356,-0.498 0.305,-0.053 0.609,-0.025 0.91,0.05 0.353,0.088 0.697,0.203 1.035,0.337 0.963,0.38 1.882,0.85 2.779,1.363 0.415,0.238 0.819,0.494 1.231,0.737 0.187,0.109 0.325,0.256 0.436,0.443 0.583,0.989 1.204,1.954 1.85,2.903 0.732,1.077 1.493,2.131 2.323,3.135 0.463,0.561 0.945,1.106 1.466,1.614 0.397,0.388 0.821,0.746 1.271,1.072 0.265,0.191 0.546,0.354 0.839,0.496 0.208,0.101 0.428,0.166 0.653,0.212 0.212,0.044 0.419,0.015 0.616,-0.078 C 0.14,0.748 0.286,0.58 0.354,0.345 0.412,0.14 0.422,-0.063 0.382,-0.278 0.315,-0.641 0.177,-0.973 -0.008,-1.288 -0.281,-1.752 -0.609,-2.175 -0.97,-2.573 -1.459,-3.112 -1.979,-3.62 -2.524,-4.102 c -1.161,-1.029 -2.372,-1.995 -3.632,-2.899 -0.7,-0.501 -1.412,-0.986 -2.123,-1.47 -0.178,-0.121 -0.326,-0.259 -0.441,-0.442 -0.59,-0.94 -1.182,-1.878 -1.695,-2.863 -0.203,-0.39 -0.385,-0.791 -0.574,-1.188 -0.107,-0.225 -0.168,-0.465 -0.232,-0.705 -0.007,-0.026 -0.056,-0.054 -0.088,-0.058 -0.033,-0.003 -0.081,0.012 -0.1,0.037 -0.033,0.043 -0.068,0.099 -0.069,0.151 -0.003,0.094 0.008,0.191 0.033,0.282 0.115,0.426 0.282,0.833 0.466,1.233 0.375,0.817 0.788,1.616 1.225,2.402 0.025,0.046 0.033,0.103 0.044,0.156 0.002,0.006 -0.031,0.031 -0.037,0.027 -0.119,-0.06 -0.239,-0.12 -0.354,-0.188 -0.938,-0.557 -1.891,-1.085 -2.887,-1.534 -0.505,-0.227 -1.019,-0.435 -1.559,-0.571 -0.339,-0.085 -0.679,-0.107 -1.025,-0.067 -0.157,0.018 -0.297,0.078 -0.415,0.179 -0.239,0.201 -0.338,0.462 -0.284,0.768 0.044,0.245 0.135,0.477 0.253,0.699 0.189,0.356 0.412,0.689 0.652,1.012 0.078,0.105 0.187,0.196 0.194,0.342 0.014,0.005 0.029,0.009 0.04,0.017 0.007,0.004 0.007,0.017 0.011,0.026 -0.013,-0.018 -0.026,-0.036 -0.039,-0.055 -0.056,-0.006 -0.12,0.003 -0.166,-0.021 -0.151,-0.08 -0.297,-0.17 -0.442,-0.261 -0.726,-0.457 -1.405,-0.978 -2.069,-1.52 -0.413,-0.337 -0.826,-0.674 -1.247,-1 -0.256,-0.198 -0.525,-0.378 -0.792,-0.561 -0.158,-0.107 -0.329,-0.189 -0.512,-0.249 -0.251,-0.081 -0.509,0.094 -0.528,0.363 -0.012,0.172 -0.002,0.343 0.059,0.506 0.106,0.285 0.206,0.573 0.329,0.851 0.108,0.243 0.244,0.473 0.366,0.71 0.034,0.065 0.064,0.133 0.1,0.21 -0.061,0.026 -0.112,0.047 -0.163,0.069 z"
           style="fill:#231f20;fill-opacity:1;fill-rule:nonzero;stroke:none"
           id="path598" />
      </g>
      <g
         id="g608"
         transform="translate(141.1354,101.703)">
        <path
           d="m 0,0 c -0.194,-0.028 -0.481,0.006 -0.762,0.056 -0.472,0.083 -0.851,0.333 -1.151,0.703 -0.193,0.24 -0.338,0.508 -0.451,0.796 -0.134,0.34 -0.208,0.696 -0.307,1.045 -0.052,0.184 -0.092,0.372 -0.146,0.555 -0.113,0.377 -0.306,0.7 -0.651,0.914 -0.064,0.04 -0.12,0.094 -0.176,0.146 -0.074,0.068 -0.093,0.243 -0.034,0.32 0.047,0.061 0.092,0.126 0.151,0.172 0.136,0.105 0.273,0.21 0.421,0.298 0.777,0.46 1.593,0.832 2.465,1.076 0.369,0.103 0.74,0.191 1.129,0.179 C 0.703,6.253 0.905,6.203 1.094,6.106 1.234,6.035 1.348,5.93 1.402,5.779 1.426,5.709 1.445,5.627 1.431,5.557 1.398,5.387 1.331,5.228 1.194,5.111 1.183,5.101 1.159,5.095 1.146,5.101 1.13,5.107 1.112,5.124 1.108,5.14 1.08,5.258 1.139,5.365 1.155,5.477 1.17,5.582 1.102,5.721 1.013,5.771 0.896,5.838 0.773,5.89 0.636,5.9 0.425,5.915 0.214,5.916 0.007,5.87 -0.198,5.823 -0.403,5.775 -0.605,5.717 -1.417,5.484 -2.185,5.14 -2.932,4.748 -3.033,4.695 -3.128,4.629 -3.225,4.567 -3.372,4.474 -3.361,4.381 -3.246,4.306 -3.198,4.275 -3.15,4.243 -3.103,4.21 -2.795,3.993 -2.589,3.698 -2.467,3.346 -2.385,3.111 -2.318,2.871 -2.249,2.632 -2.196,2.449 -2.152,2.262 -2.098,2.079 -2.006,1.765 -1.877,1.467 -1.699,1.192 -1.384,0.707 -0.929,0.455 -0.36,0.421 -0.074,0.403 0.217,0.404 0.5,0.438 1.28,0.532 2.043,0.705 2.788,0.963 3.587,1.239 4.355,1.576 5.085,2.002 5.25,2.098 5.422,2.182 5.592,2.269 5.63,2.288 5.662,2.268 5.673,2.226 5.678,2.208 5.68,2.182 5.67,2.17 5.454,1.922 5.186,1.736 4.911,1.562 4.718,1.439 4.518,1.322 4.313,1.221 3.227,0.683 2.094,0.282 0.895,0.085 0.631,0.042 0.362,0.033 0,0"
           style="fill:#231f20;fill-opacity:1;fill-rule:nonzero;stroke:none"
           id="path606" />
      </g>
      <g
         id="g612"
         transform="translate(130.0873,111.7564)">
        <path
           d="M 0,0 C 0.159,-0.016 0.257,-0.161 0.222,-0.326 0.202,-0.417 0.113,-0.484 0.016,-0.482 -0.148,-0.478 -0.272,-0.338 -0.247,-0.184 -0.229,-0.074 -0.114,0.012 0,0"
           style="fill:#231f20;fill-opacity:1;fill-rule:nonzero;stroke:none"
           id="path610" />
      </g>
      <g
         id="g620"
         transform="translate(126.053,106.9245)">
        <path
           d="M 0,0 C 0.001,0.019 -0.005,0.043 0.005,0.055 0.121,0.207 0.258,0.327 0.459,0.346 L 0.449,0.357 C 0.447,0.339 0.451,0.315 0.441,0.302 0.324,0.155 0.194,0.025 -0.009,0.011 Z"
           style="fill:#231f20;fill-opacity:1;fill-rule:nonzero;stroke:none"
           id="path618" />
      </g>
      <g
         id="g624"
         transform="translate(125.2323,106.3676)">
        <path
           d="M 0,0 C 0.099,0.194 0.261,0.298 0.472,0.331 L 0.467,0.337 C 0.466,0.318 0.471,0.295 0.462,0.282 0.35,0.131 0.219,0.004 0.02,-0.022 Z"
           style="fill:#231f20;fill-opacity:1;fill-rule:nonzero;stroke:none"
           id="path622" />
      </g>
      <g
         id="g628"
         transform="translate(126.0437,106.9352)">
        <path
           d="m 0,0 c -0.06,-0.158 -0.172,-0.241 -0.345,-0.231 l 0.006,-0.006 c 0.062,0.159 0.171,0.245 0.348,0.226 z"
           style="fill:#231f20;fill-opacity:1;fill-rule:nonzero;stroke:none"
           id="path626" />
      </g>
      <g
         id="g688"
         transform="translate(220.47724,106.99038)">
        <path
           d="m 0,0 c 0.004,-0.049 0.006,-0.086 0.01,-0.124 0.009,-0.108 0.143,-0.198 0.249,-0.166 0.054,0.016 0.111,0.027 0.16,0.054 0.386,0.215 0.705,0.503 0.939,0.879 C 1.396,0.704 1.415,0.78 1.434,0.852 1.464,0.965 1.359,1.084 1.245,1.081 1.148,1.078 1.061,1.048 0.977,1.003 0.677,0.84 0.413,0.627 0.161,0.4 0.109,0.352 0.076,0.277 0.049,0.209 0.022,0.139 0.014,0.063 0,0 m -56.535,-5.977 c 0.062,0.01 0.137,0.021 0.211,0.035 0.36,0.065 0.694,0.2 1.012,0.377 0.417,0.232 0.81,0.5 1.185,0.794 0.419,0.329 0.837,0.66 1.213,1.039 0.023,0.023 0.024,0.069 0.028,0.104 0.001,0.006 -0.031,0.022 -0.049,0.024 -0.075,0.006 -0.151,0.016 -0.226,0.011 -0.708,-0.039 -1.392,-0.197 -2.062,-0.424 -0.488,-0.165 -0.954,-0.381 -1.397,-0.643 -0.197,-0.116 -0.39,-0.238 -0.551,-0.405 -0.199,-0.206 -0.183,-0.521 0.041,-0.706 0.168,-0.14 0.366,-0.195 0.595,-0.206 m 43.56,7.251 c 0.515,0.425 1.078,0.879 1.63,1.346 1.106,0.935 2.165,1.92 3.145,2.987 0.554,0.603 1.085,1.226 1.565,1.89 0.157,0.217 0.302,0.439 0.409,0.685 0.022,0.052 0.039,0.109 0.042,0.164 C -6.183,8.367 -6.23,8.41 -6.255,8.41 -6.33,8.41 -6.41,8.408 -6.478,8.382 -6.816,8.248 -7.123,8.056 -7.417,7.845 -7.897,7.5 -8.355,7.129 -8.79,6.729 c -1.294,-1.191 -2.445,-2.506 -3.439,-3.957 -0.333,-0.486 -0.654,-0.981 -0.934,-1.501 -0.008,-0.014 -0.007,-0.039 0,-0.053 0.021,-0.038 0.053,-0.037 0.092,-0.003 0.014,0.013 0.032,0.02 0.096,0.059 m -35.66,2.65 c 0.726,0.002 1.446,0.061 2.164,0.163 0.1,0.014 0.182,0.056 0.244,0.132 0.061,0.073 0.117,0.15 0.173,0.227 0.307,0.413 0.612,0.827 0.918,1.241 1.373,1.852 2.751,3.7 4.217,5.481 1.079,1.31 2.207,2.575 3.431,3.752 0.082,0.079 0.161,0.162 0.241,0.244 0.041,0.043 0.023,0.107 -0.039,0.13 -0.089,0.034 -0.176,0.073 -0.268,0.098 -0.794,0.218 -1.606,0.308 -2.427,0.329 -0.363,0.009 -0.722,-0.044 -1.083,-0.066 -0.84,-0.052 -1.663,-0.207 -2.473,-0.422 -2.637,-0.7 -5.002,-1.931 -7.088,-3.689 -0.804,-0.677 -1.527,-1.435 -2.128,-2.302 -0.272,-0.394 -0.5,-0.81 -0.679,-1.254 -0.175,-0.431 -0.239,-0.878 -0.22,-1.342 0.021,-0.497 0.202,-0.926 0.52,-1.301 0.161,-0.19 0.347,-0.353 0.553,-0.493 0.269,-0.183 0.555,-0.331 0.858,-0.449 0.663,-0.257 1.35,-0.4 2.058,-0.444 0.342,-0.021 0.685,-0.024 1.028,-0.035 m 20.047,15.165 c -0.309,-0.013 -0.649,-0.029 -0.989,-0.096 -0.792,-0.157 -1.542,-0.428 -2.268,-0.771 -1.161,-0.55 -2.22,-1.261 -3.217,-2.067 -0.296,-0.239 -0.582,-0.492 -0.871,-0.741 -0.057,-0.05 -0.104,-0.111 -0.155,-0.167 -0.031,-0.034 -0.024,-0.126 0.011,-0.155 0.207,-0.169 0.421,-0.329 0.617,-0.508 0.272,-0.249 0.466,-0.554 0.572,-0.909 0.056,-0.186 0.075,-0.376 0.017,-0.564 -0.015,-0.05 -0.065,-0.09 -0.102,-0.131 -0.006,-0.008 -0.038,-0.006 -0.044,0.002 -0.055,0.069 0.002,0.142 -0.005,0.213 -0.04,0.414 -0.217,0.766 -0.496,1.071 -0.234,0.256 -0.511,0.456 -0.815,0.62 -0.063,0.034 -0.152,0.023 -0.211,-0.031 -0.125,-0.117 -0.251,-0.234 -0.373,-0.355 -1.138,-1.131 -2.192,-2.336 -3.206,-3.578 -0.976,-1.197 -1.916,-2.423 -2.839,-3.662 -0.626,-0.842 -1.254,-1.682 -1.878,-2.525 -0.067,-0.09 -0.118,-0.191 -0.174,-0.289 -0.006,-0.011 0.003,-0.037 0.012,-0.051 0.011,-0.014 0.032,-0.034 0.046,-0.032 0.187,0.032 0.376,0.061 0.561,0.103 0.836,0.193 1.666,0.407 2.487,0.656 2.541,0.773 5.001,1.746 7.358,2.974 1.287,0.67 2.53,1.413 3.704,2.268 0.865,0.63 1.689,1.308 2.437,2.074 0.588,0.601 1.125,1.245 1.563,1.967 0.258,0.425 0.474,0.869 0.629,1.343 0.144,0.441 0.207,0.889 0.181,1.352 -0.05,0.904 -0.582,1.583 -1.444,1.86 -0.352,0.113 -0.711,0.127 -1.108,0.129 M -6.115,1.098 c 0.142,0.015 0.236,0.117 0.341,0.196 1.49,1.128 2.97,2.269 4.38,3.496 0.907,0.788 1.793,1.6 2.586,2.507 0.377,0.431 0.73,0.88 1.027,1.371 C 2.348,8.881 2.46,9.102 2.536,9.338 2.571,9.445 2.578,9.562 2.59,9.674 2.599,9.764 2.487,9.854 2.401,9.841 2.131,9.8 1.893,9.68 1.661,9.547 1.246,9.311 0.852,9.041 0.477,8.748 -0.457,8.018 -1.325,7.216 -2.128,6.346 -2.619,5.813 -3.099,5.27 -3.566,4.716 -4.378,3.754 -5.134,2.748 -5.818,1.689 -5.911,1.545 -6.003,1.401 -6.086,1.25 -6.11,1.205 -6.099,1.141 -6.104,1.085 -6.118,1.083 -6.134,1.084 -6.146,1.078 -6.154,1.075 -6.157,1.062 -6.163,1.053 Z m -26.671,-2.297 c -0.061,0.008 -0.112,-0.017 -0.153,-0.059 -0.228,-0.229 -0.45,-0.466 -0.686,-0.689 -0.235,-0.223 -0.477,-0.439 -0.728,-0.644 -0.132,-0.107 -0.285,-0.189 -0.435,-0.271 -0.065,-0.035 -0.145,-0.049 -0.219,-0.058 -0.236,-0.032 -0.464,0.117 -0.53,0.342 -0.049,0.166 -0.071,0.332 -0.044,0.508 0.032,0.208 0.076,0.412 0.152,0.609 0.062,0.159 0.127,0.318 0.19,0.473 -0.015,0.02 -0.035,0.047 -0.036,0.047 -0.064,-0.042 -0.13,-0.081 -0.187,-0.13 -0.691,-0.601 -1.389,-1.193 -2.106,-1.763 -0.643,-0.511 -1.302,-0.999 -1.998,-1.434 -0.649,-0.405 -1.327,-0.753 -2.055,-0.995 -0.804,-0.266 -1.63,-0.404 -2.475,-0.372 -0.59,0.023 -1.176,0.112 -1.753,0.249 -0.874,0.207 -1.719,0.503 -2.562,0.805 -0.521,0.186 -1.044,0.364 -1.566,0.547 -0.505,0.177 -1.026,0.289 -1.55,0.395 -0.056,0.012 -0.113,0.016 -0.17,0.022 -0.099,0.009 -0.188,-0.017 -0.264,-0.084 -0.533,-0.462 -1.072,-0.918 -1.645,-1.331 -0.497,-0.357 -1.009,-0.687 -1.566,-0.943 -0.331,-0.151 -0.674,-0.257 -1.036,-0.313 -0.256,-0.039 -0.497,-0.004 -0.732,0.074 -0.242,0.082 -0.431,0.242 -0.553,0.472 -0.139,0.263 -0.111,0.515 0.057,0.753 0.112,0.157 0.26,0.278 0.415,0.391 0.512,0.372 1.067,0.667 1.657,0.892 0.897,0.342 1.823,0.554 2.787,0.574 0.076,0.001 0.154,0 0.228,0.014 0.054,0.01 0.112,0.034 0.153,0.068 0.088,0.073 0.168,0.156 0.249,0.237 0.701,0.703 1.361,1.443 1.998,2.205 1.076,1.289 2.087,2.629 3.093,3.973 0.056,0.075 0.097,0.162 0.142,0.244 0.007,0.014 0.007,0.04 -0.002,0.051 -0.01,0.014 -0.034,0.027 -0.05,0.025 -0.529,-0.076 -1.063,-0.095 -1.596,-0.099 -0.439,-0.002 -0.879,-0.003 -1.316,0.027 -0.842,0.058 -1.66,0.235 -2.434,0.583 -0.44,0.197 -0.834,0.461 -1.171,0.806 -0.244,0.249 -0.433,0.533 -0.562,0.855 -0.145,0.36 -0.19,0.736 -0.174,1.122 0.026,0.603 0.217,1.158 0.491,1.689 0.254,0.493 0.567,0.949 0.913,1.382 0.635,0.794 1.365,1.492 2.162,2.119 1.942,1.528 4.104,2.63 6.484,3.298 0.679,0.191 1.37,0.328 2.07,0.428 0.969,0.138 1.94,0.144 2.911,0.076 0.591,-0.042 1.168,-0.177 1.733,-0.358 0.09,-0.028 0.179,-0.067 0.272,-0.084 0.051,-0.009 0.117,0.007 0.162,0.035 0.08,0.05 0.149,0.117 0.221,0.179 0.638,0.547 1.29,1.075 1.982,1.552 0.992,0.685 2.038,1.27 3.167,1.702 0.553,0.213 1.12,0.378 1.703,0.483 0.623,0.113 1.254,0.131 1.88,0.041 0.578,-0.082 1.101,-0.302 1.521,-0.728 0.36,-0.364 0.574,-0.798 0.672,-1.3 0.133,-0.678 0.014,-1.328 -0.201,-1.967 -0.258,-0.768 -0.673,-1.451 -1.159,-2.093 -0.696,-0.917 -1.511,-1.718 -2.392,-2.454 -1.219,-1.018 -2.539,-1.889 -3.921,-2.668 -1.765,-0.995 -3.608,-1.82 -5.501,-2.537 -1.463,-0.554 -2.949,-1.034 -4.466,-1.42 -0.609,-0.155 -1.22,-0.308 -1.842,-0.406 -0.228,-0.035 -0.381,-0.146 -0.512,-0.323 -0.296,-0.398 -0.6,-0.79 -0.9,-1.185 -0.982,-1.291 -1.989,-2.562 -3.07,-3.772 -0.445,-0.497 -0.915,-0.971 -1.374,-1.457 -0.091,-0.097 -0.18,-0.196 -0.268,-0.295 -0.031,-0.035 0.007,-0.126 0.056,-0.134 1.075,-0.187 2.1,-0.548 3.12,-0.923 0.805,-0.296 1.617,-0.572 2.452,-0.777 0.577,-0.141 1.163,-0.221 1.753,-0.241 0.787,-0.026 1.558,0.105 2.306,0.356 0.58,0.195 1.132,0.452 1.662,0.758 0.529,0.306 1.037,0.644 1.532,1.002 1.191,0.862 2.322,1.798 3.41,2.787 0.269,0.245 0.52,0.504 0.739,0.795 0.114,0.152 0.249,0.289 0.378,0.429 0.038,0.041 0.089,0.071 0.134,0.105 0.05,0.037 0.159,0.022 0.212,-0.024 0.048,-0.041 0.06,-0.098 0.052,-0.154 -0.009,-0.055 -0.026,-0.113 -0.055,-0.16 -0.123,-0.193 -0.249,-0.384 -0.377,-0.574 -0.331,-0.491 -0.62,-1.006 -0.873,-1.542 -0.114,-0.242 -0.206,-0.492 -0.262,-0.754 -0.016,-0.071 0,-0.149 0.009,-0.223 0.005,-0.045 0.043,-0.069 0.086,-0.057 0.072,0.021 0.146,0.04 0.211,0.076 0.251,0.14 0.477,0.316 0.689,0.509 0.379,0.348 0.76,0.695 1.13,1.053 0.466,0.451 0.921,0.914 1.382,1.37 0.067,0.067 0.139,0.133 0.219,0.18 0.041,0.024 0.116,0.024 0.158,0.003 0.044,-0.023 0.09,-0.083 0.095,-0.13 0.007,-0.072 -0.004,-0.156 -0.037,-0.219 -0.089,-0.168 -0.194,-0.328 -0.293,-0.491 -0.208,-0.342 -0.425,-0.68 -0.622,-1.028 -0.407,-0.716 -0.714,-1.474 -0.931,-2.269 -0.082,-0.299 -0.106,-0.601 -0.086,-0.907 0.005,-0.075 0.028,-0.149 0.048,-0.222 0.022,-0.08 0.136,-0.154 0.221,-0.156 0.117,-0.003 0.229,0.021 0.329,0.079 0.197,0.116 0.399,0.226 0.583,0.361 0.446,0.327 0.892,0.655 1.323,1.002 1.178,0.945 2.425,1.787 3.738,2.533 0.58,0.33 1.172,0.639 1.783,0.908 0.28,0.123 0.562,0.237 0.863,0.3 0.129,0.027 0.251,0.086 0.378,0.127 0.126,0.041 0.254,0.077 0.38,0.119 0.172,0.056 0.341,0.028 0.507,-0.022 0.423,-0.126 0.526,-0.582 0.244,-0.854 -0.021,-0.02 -0.066,-0.018 -0.099,-0.02 -0.009,0 -0.026,0.028 -0.025,0.042 0.001,0.038 0.011,0.075 0.015,0.113 0.014,0.124 -0.069,0.247 -0.242,0.26 -0.177,0.012 -0.341,-0.022 -0.497,-0.105 -0.255,-0.135 -0.484,-0.306 -0.679,-0.518 -0.18,-0.197 -0.354,-0.4 -0.518,-0.61 -0.389,-0.498 -0.711,-1.039 -0.97,-1.615 -0.094,-0.208 -0.179,-0.423 -0.173,-0.659 0.002,-0.075 0.012,-0.153 0.036,-0.223 0.018,-0.051 0.057,-0.103 0.101,-0.132 0.13,-0.088 0.279,-0.133 0.435,-0.112 0.226,0.031 0.449,0.079 0.662,0.171 0.264,0.114 0.517,0.246 0.753,0.409 0.361,0.248 0.72,0.5 1.071,0.764 1.006,0.758 1.989,1.544 2.943,2.366 0.129,0.112 0.268,0.214 0.407,0.314 0.082,0.058 0.178,0.07 0.268,0.014 0.084,-0.051 0.12,-0.202 0.077,-0.31 -0.027,-0.071 -0.056,-0.142 -0.091,-0.209 -0.08,-0.152 -0.163,-0.303 -0.247,-0.452 -0.367,-0.647 -0.702,-1.311 -1.016,-1.986 -0.088,-0.19 -0.183,-0.377 -0.209,-0.59 -0.007,-0.064 0.061,-0.164 0.127,-0.167 0.094,-0.003 0.194,-0.016 0.281,0.011 0.182,0.054 0.363,0.118 0.533,0.203 0.443,0.222 0.888,0.443 1.318,0.688 1.261,0.719 2.456,1.539 3.63,2.391 0.176,0.128 0.301,0.281 0.393,0.477 0.422,0.899 0.91,1.761 1.461,2.588 1.065,1.598 2.332,3.017 3.774,4.28 0.517,0.453 1.064,0.869 1.653,1.226 0.295,0.178 0.601,0.333 0.937,0.419 0.074,0.018 0.148,0.042 0.223,0.044 C -6.209,8.981 -6.111,8.975 -6.02,8.951 -5.763,8.883 -5.613,8.634 -5.67,8.378 -5.686,8.304 -5.705,8.228 -5.739,8.161 -5.834,7.975 -5.921,7.781 -6.041,7.611 -6.261,7.3 -6.494,6.997 -6.737,6.704 -7.554,5.717 -8.455,4.811 -9.384,3.932 c -1.095,-1.037 -2.257,-1.997 -3.441,-2.93 -0.18,-0.142 -0.357,-0.288 -0.545,-0.418 -0.21,-0.145 -0.362,-0.327 -0.47,-0.56 -0.324,-0.691 -0.64,-1.383 -0.878,-2.111 -0.132,-0.401 -0.211,-0.81 -0.271,-1.226 -0.033,-0.234 0.007,-0.458 0.09,-0.673 0.066,-0.172 0.202,-0.275 0.39,-0.293 0.173,-0.017 0.341,0.002 0.509,0.053 0.274,0.084 0.54,0.193 0.789,0.333 0.381,0.216 0.763,0.433 1.13,0.672 0.544,0.354 1.08,0.72 1.609,1.094 0.903,0.64 1.797,1.291 2.698,1.933 0.16,0.114 0.283,0.247 0.37,0.424 0.869,1.754 1.998,3.334 3.247,4.833 0.648,0.778 1.326,1.527 2.044,2.24 0.584,0.578 1.197,1.123 1.843,1.629 0.511,0.4 1.046,0.767 1.625,1.065 0.29,0.149 0.59,0.266 0.913,0.323 0.116,0.02 0.225,0.01 0.338,-0.02 C 2.911,10.217 3.074,9.942 3.023,9.641 2.991,9.455 2.931,9.269 2.854,9.097 2.762,8.888 2.649,8.688 2.528,8.494 2.235,8.023 1.88,7.597 1.505,7.191 0.974,6.616 0.411,6.072 -0.169,5.547 -1.884,3.998 -3.706,2.582 -5.548,1.19 -5.806,0.994 -6.063,0.796 -6.325,0.605 -6.514,0.468 -6.663,0.302 -6.772,0.094 -7.046,-0.431 -7.309,-0.959 -7.525,-1.511 -7.7,-1.957 -7.82,-2.415 -7.888,-2.89 c -0.039,-0.273 -0.006,-0.532 0.08,-0.788 0.066,-0.198 0.229,-0.295 0.447,-0.276 0.135,0.011 0.26,0.052 0.383,0.107 0.262,0.118 0.506,0.269 0.737,0.437 0.494,0.358 0.986,0.719 1.469,1.092 1.088,0.839 2.189,1.66 3.339,2.412 0.415,0.271 0.827,0.547 1.276,0.762 0.17,0.082 0.32,0.206 0.48,0.31 C 0.547,1.313 0.779,1.444 1.046,1.499 1.289,1.549 1.497,1.478 1.673,1.307 1.758,1.223 1.801,1.118 1.81,1 1.824,0.824 1.789,0.658 1.692,0.509 1.395,0.051 0.999,-0.3 0.516,-0.551 0.434,-0.594 0.338,-0.62 0.245,-0.632 c -0.183,-0.024 -0.341,0.03 -0.447,0.191 -0.051,0.077 -0.094,0.161 -0.14,0.24 -0.041,-0.013 -0.088,-0.014 -0.109,-0.038 -0.652,-0.758 -1.167,-1.601 -1.529,-2.534 -0.048,-0.122 -0.064,-0.257 -0.093,-0.386 -0.009,-0.043 0.076,-0.108 0.118,-0.093 0.053,0.019 0.111,0.03 0.158,0.059 0.242,0.153 0.48,0.311 0.721,0.466 0.337,0.216 0.671,0.436 1.014,0.643 0.443,0.268 0.916,0.468 1.416,0.606 0.187,0.051 0.375,0.072 0.565,0.036 C 1.97,-1.451 2.015,-1.494 2.06,-1.527 2.071,-1.536 2.075,-1.563 2.073,-1.581 2.072,-1.594 2.06,-1.612 2.048,-1.617 2.013,-1.63 1.976,-1.646 1.939,-1.646 1.608,-1.644 1.302,-1.745 1.001,-1.871 0.612,-2.032 0.239,-2.224 -0.109,-2.461 -0.503,-2.729 -0.889,-3.009 -1.282,-3.279 -1.47,-3.408 -1.659,-3.54 -1.859,-3.649 -2.23,-3.851 -2.551,-3.65 -2.555,-3.218 c -10e-4,0.132 0.016,0.266 0.04,0.396 0.059,0.321 0.176,0.624 0.316,0.917 0.296,0.622 0.649,1.21 1.079,1.75 0.059,0.074 0.116,0.151 0.171,0.228 0.007,0.008 0.003,0.035 -0.005,0.041 -0.012,0.01 -0.038,0.018 -0.048,0.011 -0.163,-0.097 -0.327,-0.194 -0.486,-0.297 -1.041,-0.677 -2.025,-1.432 -2.995,-2.204 -0.374,-0.296 -0.745,-0.595 -1.124,-0.885 -0.273,-0.209 -0.551,-0.411 -0.835,-0.602 -0.173,-0.117 -0.361,-0.213 -0.547,-0.311 -0.083,-0.044 -0.175,-0.08 -0.267,-0.099 -0.377,-0.076 -0.687,-0.023 -0.91,0.405 -0.189,0.362 -0.242,0.761 -0.196,1.168 0.06,0.533 0.177,1.052 0.365,1.555 0.06,0.16 0.106,0.325 0.156,0.488 0.004,0.013 -0.009,0.036 -0.02,0.049 -0.009,0.011 -0.033,0.025 -0.04,0.02 -0.066,-0.036 -0.133,-0.073 -0.195,-0.117 -1.07,-0.765 -2.138,-1.535 -3.212,-2.297 -0.606,-0.43 -1.226,-0.842 -1.882,-1.196 -0.32,-0.173 -0.653,-0.314 -1.008,-0.396 -0.188,-0.044 -0.377,-0.05 -0.565,0.011 -0.343,0.113 -0.52,0.371 -0.61,0.701 -0.024,0.091 -0.033,0.188 -0.04,0.283 -0.033,0.44 -0.007,0.875 0.088,1.307 0.108,0.486 0.252,0.959 0.425,1.424 0.026,0.071 0.05,0.144 0.063,0.217 0.004,0.025 -0.03,0.056 -0.054,0.098 -0.159,-0.107 -0.317,-0.212 -0.473,-0.32 -0.848,-0.586 -1.7,-1.164 -2.588,-1.688 -0.509,-0.3 -1.018,-0.601 -1.555,-0.85 -0.207,-0.097 -0.421,-0.179 -0.634,-0.262 -0.145,-0.056 -0.298,-0.064 -0.451,-0.05 -0.207,0.021 -0.353,0.129 -0.437,0.321 -0.056,0.126 -0.076,0.257 -0.048,0.391 0.049,0.243 0.118,0.481 0.21,0.712 0.22,0.551 0.493,1.074 0.793,1.585 0.038,0.063 0.093,0.122 0.076,0.205 -0.003,0.014 -0.033,0.037 -0.038,0.034 -0.065,-0.038 -0.132,-0.076 -0.192,-0.122 -0.832,-0.639 -1.663,-1.28 -2.495,-1.919 -0.408,-0.314 -0.817,-0.627 -1.255,-0.899 -0.309,-0.192 -0.628,-0.359 -0.98,-0.462 -0.186,-0.055 -0.373,-0.077 -0.565,-0.067 -0.388,0.019 -0.676,0.29 -0.723,0.682 -0.02,0.172 -0.008,0.342 0.031,0.511 0.072,0.318 0.18,0.623 0.318,0.917 0.286,0.608 0.651,1.165 1.093,1.671 0.062,0.072 0.125,0.143 0.186,0.216 0.012,0.015 0.018,0.034 0.026,0.052 -0.029,0.013 -0.067,0.047 -0.087,0.038 -0.193,-0.081 -0.386,-0.162 -0.572,-0.258 -1.565,-0.803 -3.045,-1.742 -4.423,-2.837 -0.583,-0.463 -1.159,-0.933 -1.745,-1.392 -0.225,-0.176 -0.461,-0.339 -0.703,-0.491 -0.144,-0.09 -0.304,-0.161 -0.465,-0.216 -0.338,-0.116 -0.655,0.019 -0.81,0.349 -0.14,0.298 -0.191,0.613 -0.149,0.947 0.079,0.629 0.251,1.231 0.493,1.815 0.081,0.194 0.171,0.383 0.249,0.578 0.02,0.05 0.01,0.111 0.014,0.167 0.061,0.005 0.12,0.019 0.039,0.081 -0.016,0.013 -0.049,-0.043 -0.035,-0.085"
           style="fill:#231f20;fill-opacity:1;fill-rule:nonzero;stroke:none"
           id="path686" />
      </g>
      <g
         id="g39"
         transform="matrix(0.04549145,0,0,-0.03825663,115.67603,118.01853)">
        <path
           d="m 786.375,182.838 c 1.791,2.156 3.689,4.131 5.718,6.042 2.02,1.901 4.143,3.694 6.332,5.402 4.38,3.415 9.02,6.495 13.809,9.313 9.595,5.608 19.758,10.241 30.246,13.843 5.247,1.793 10.578,3.325 15.971,4.535 5.394,1.2 10.851,2.081 16.321,2.515 5.467,0.43 10.959,0.415 16.32,-0.279 5.355,-0.685 10.582,-2.118 15.252,-4.505 l -0.262,0.152 c 3.342,-2.304 6.542,-4.783 9.481,-7.479 2.907,-2.713 5.578,-5.661 7.527,-8.9 1.958,-3.211 3.144,-6.759 2.783,-10.022 -0.337,-3.252 -2.225,-6.161 -5.033,-8.333 -2.815,-2.167 -6.348,-3.645 -10.045,-4.51 -3.706,-0.874 -7.596,-1.18 -11.467,-1.022 -7.752,0.324 -15.45,2.505 -22.226,6.242 -0.408,0.233 -0.876,0.478 -1.237,0.699 l -1.336,0.798 c -0.861,0.538 -1.632,1.014 -2.455,1.578 -1.638,1.086 -3.197,2.261 -4.688,3.495 -2.984,2.462 -5.641,5.239 -7.719,8.303 -2.084,3.056 -3.561,6.411 -4.161,9.871 -0.63,3.454 -0.358,6.998 0.714,10.349 1.068,3.357 2.932,6.509 5.322,9.286 2.382,2.788 5.281,5.204 8.467,7.218 6.385,4.048 13.864,6.475 21.508,7.494 2.532,0.338 4.311,2.665 3.973,5.196 -0.289,2.173 -2.045,3.792 -4.137,3.993 l -0.105,0.009 c -7.023,0.677 -13.941,2.477 -20.489,5.226 -6.558,2.733 -12.742,6.411 -18.435,10.744 -5.694,4.334 -10.924,9.315 -15.546,14.808 -4.614,5.496 -8.694,11.448 -12.056,17.758 -3.372,6.302 -6.045,12.947 -7.916,19.748 -1.88,6.8 -2.825,13.79 -2.76,20.672 0.077,6.884 1.324,13.649 3.757,19.9 2.435,6.261 6.196,11.913 10.902,16.768 2.358,2.424 4.966,4.639 7.758,6.647 1.441,0.988 2.782,1.908 4.44,2.923 1.467,0.882 2.994,1.825 4.554,2.675 6.202,3.454 12.75,6.16 19.491,7.684 3.368,0.75 6.779,1.219 10.187,1.324 3.405,0.133 6.814,-0.078 10.158,-0.679 6.694,-1.185 13.104,-3.95 18.755,-7.955 5.666,-3.983 10.59,-9.198 14.355,-15.172 3.746,-5.947 6.565,-12.7 7.204,-19.592 0.292,-3.415 0.062,-6.878 -1.18,-9.848 -1.218,-2.968 -3.56,-5.282 -6.711,-6.355 -3.134,-1.12 -6.818,-1.106 -10.398,-0.511 -3.605,0.582 -7.189,1.692 -10.676,3.068 -0.309,0.124 -0.658,-0.025 -0.782,-0.333 -0.115,-0.285 0.008,-0.608 0.271,-0.752 3.351,-1.817 6.857,-3.435 10.628,-4.508 3.754,-1.028 7.854,-1.583 12.021,-0.609 2.065,0.494 4.105,1.433 5.839,2.814 1.74,1.372 3.16,3.141 4.183,5.061 2.047,3.869 2.706,8.15 2.661,12.244 -0.044,4.118 -0.765,8.14 -1.89,12.013 -1.142,3.868 -2.676,7.612 -4.616,11.139 -3.852,7.065 -9.086,13.421 -15.469,18.553 -6.391,5.107 -14.022,8.838 -22.133,10.699 -4.052,0.936 -8.209,1.4 -12.353,1.441 -4.147,0.033 -8.268,-0.41 -12.298,-1.164 -8.063,-1.541 -15.711,-4.438 -22.822,-8.089 -1.783,-0.906 -3.52,-1.865 -5.298,-2.912 l -1.22,-0.737 -0.605,-0.368 -0.303,-0.184 -0.375,-0.243 -2.571,-1.69 c -3.38,-2.343 -6.598,-4.977 -9.555,-7.917 -5.946,-5.848 -10.684,-13.053 -13.762,-20.86 -3.121,-7.808 -4.482,-16.18 -4.503,-24.388 -0.038,-8.228 1.326,-16.323 3.604,-24.036 2.281,-7.724 5.542,-15.072 9.473,-21.987 3.936,-6.917 8.623,-13.366 13.885,-19.292 5.253,-5.935 11.141,-11.314 17.574,-15.98 6.429,-4.666 13.423,-8.619 20.881,-11.532 7.445,-2.918 15.337,-4.839 23.371,-5.444 l -0.27,9.198 c -8.762,-1.353 -17.399,-4.305 -24.971,-9.311 -3.775,-2.498 -7.276,-5.514 -10.223,-9.1 -2.947,-3.57 -5.337,-7.739 -6.699,-12.333 -1.372,-4.576 -1.649,-9.565 -0.688,-14.264 0.923,-4.716 2.996,-9.071 5.658,-12.812 2.665,-3.757 5.892,-6.958 9.358,-9.708 1.734,-1.377 3.523,-2.665 5.368,-3.837 0.9,-0.592 1.908,-1.189 2.819,-1.73 l 1.352,-0.771 c 0.532,-0.308 0.991,-0.533 1.49,-0.802 3.925,-2.054 8.079,-3.649 12.357,-4.747 4.274,-1.109 8.673,-1.732 13.097,-1.815 4.423,-0.083 8.878,0.354 13.232,1.479 4.341,1.128 8.631,2.957 12.351,5.943 1.831,1.518 3.531,3.318 4.783,5.493 1.285,2.143 2.064,4.647 2.267,7.153 0.175,2.509 -0.17,5.001 -0.924,7.255 -0.738,2.266 -1.801,4.339 -3.023,6.243 -2.454,3.816 -5.525,6.977 -8.756,9.836 -3.259,2.828 -6.712,5.347 -10.269,7.657 l -0.057,0.037 c -0.063,0.042 -0.139,0.083 -0.205,0.115 -5.383,2.577 -11.164,3.966 -16.918,4.554 -5.766,0.593 -11.53,0.45 -17.206,-0.144 -5.679,-0.599 -11.277,-1.655 -16.778,-3.029 -5.5,-1.385 -10.902,-3.091 -16.201,-5.057 -10.589,-3.949 -20.789,-8.903 -30.343,-14.906 -4.771,-3.006 -9.384,-6.273 -13.729,-9.876 -2.171,-1.802 -4.274,-3.69 -6.271,-5.688 -1.989,-1.987 -3.911,-4.118 -5.632,-6.322 l -0.009,-0.011 c -0.204,-0.261 -0.157,-0.638 0.104,-0.842 0.259,-0.202 0.627,-0.16 0.833,0.087 z"
           id="path35" />
        <path
           d="m 918.359,360.565 c 0,0 -0.291,-0.05 -0.853,-0.147 -0.564,-0.106 -1.391,-0.218 -2.491,-0.463 -2.197,-0.458 -5.406,-1.167 -9.329,-2.842 -1.938,-0.873 -4.076,-2.004 -6.077,-3.794 -1.99,-1.756 -3.839,-4.293 -4.611,-7.425 -0.832,-3.117 -0.577,-6.559 0.254,-9.869 0.845,-3.327 2.253,-6.589 3.946,-9.82 3.434,-6.443 8.017,-12.779 13.142,-19.169 5.131,-6.395 10.898,-12.786 16.943,-19.285 6.055,-6.492 12.405,-13.082 18.916,-19.689 6.498,-6.621 13.102,-13.317 19.599,-20.078 6.493,-6.764 12.827,-13.651 18.784,-20.6 5.941,-6.96 11.605,-13.894 16.7,-20.741 5.136,-6.806 9.678,-13.589 12.975,-20.241 3.263,-6.645 5.069,-13.23 4.394,-18.898 -0.326,-2.833 -1.226,-5.453 -2.557,-7.817 -1.343,-2.362 -3.111,-4.428 -4.973,-6.263 -1.876,-1.828 -3.892,-3.37 -5.843,-4.706 -1.949,-1.35 -3.849,-2.495 -5.607,-3.472 -3.521,-1.963 -6.457,-3.298 -8.448,-4.244 -2.018,-0.906 -3.094,-1.39 -3.094,-1.39 l -0.006,-0.002 c -0.305,-0.137 -0.441,-0.496 -0.305,-0.801 0.113,-0.25 0.375,-0.387 0.635,-0.352 0,0 1.18,0.16 3.396,0.527 2.204,0.416 5.45,1.035 9.511,2.305 2.024,0.649 4.269,1.424 6.662,2.483 2.375,1.093 4.922,2.419 7.512,4.197 2.591,1.769 5.19,4.06 7.499,7.007 1.113,1.503 2.179,3.14 3.05,4.957 0.859,1.816 1.57,3.777 2.045,5.833 0.467,2.055 0.737,4.189 0.792,6.348 0.031,2.152 -0.119,4.317 -0.422,6.471 -0.672,4.29 -1.921,8.499 -3.598,12.556 -3.34,8.126 -8.159,15.745 -13.635,23.026 -5.533,7.254 -11.812,14.139 -18.409,20.827 -6.591,6.696 -13.441,13.259 -20.282,19.791 -6.842,6.531 -13.746,12.955 -20.514,19.282 -6.754,6.34 -13.432,12.521 -19.746,18.625 -6.325,6.094 -12.274,12.124 -17.666,18.027 -5.37,5.911 -10.153,11.762 -13.732,17.594 -1.767,2.918 -3.229,5.834 -4.147,8.706 -0.907,2.863 -1.262,5.692 -0.753,8.184 0.455,2.506 1.774,4.608 3.387,6.228 1.599,1.647 3.462,2.837 5.211,3.774 3.546,1.826 6.648,2.761 8.728,3.348 1.035,0.311 1.877,0.489 2.426,0.632 0.554,0.137 0.839,0.208 0.839,0.208 0.322,0.079 0.519,0.405 0.439,0.727 -0.077,0.306 -0.38,0.498 -0.687,0.445 z"
           id="path37" />
      </g>
    </g>
  </g>
</svg>
